<svg width="300" height="117" viewBox="0 0 300 117" fill="none" xmlns="http://www.w3.org/2000/svg">
<path d="M300 114.624H0V116.624H300V114.624Z" fill="#3F3D56"/>
<path d="M56.9565 13.0707C60.5659 13.0707 63.4919 10.1448 63.4919 6.53537C63.4919 2.92598 60.5659 0 56.9565 0C53.3471 0 50.4211 2.92598 50.4211 6.53537C50.4211 10.1448 53.3471 13.0707 56.9565 13.0707Z" fill="#FF6584"/>
<path d="M89.9751 40.5968H87.9751V115.008H89.9751V40.5968Z" fill="#3F3D56"/>
<path d="M88.9752 51.1194C94.7868 51.1194 99.498 46.4081 99.498 40.5965C99.498 34.7849 94.7868 30.0737 88.9752 30.0737C83.1636 30.0737 78.4524 34.7849 78.4524 40.5965C78.4524 46.4081 83.1636 51.1194 88.9752 51.1194Z" fill="#3F3D56"/>
<path d="M88.9754 86.4578C88.9754 86.4578 87.4721 54.1259 56.6553 57.884Z" fill="#3F3D56"/>
</svg>
